<?xml version="1.0" encoding="utf-8"?>
<!-- Generator: Adobe Illustrator 24.3.0, SVG Export Plug-In . SVG Version: 6.00 Build 0)  -->
<svg version="1.1" id="Layer_1" xmlns="http://www.w3.org/2000/svg" xmlns:xlink="http://www.w3.org/1999/xlink" x="0px" y="0px"
	 viewBox="0 0 105.96 89.64" style="enable-background:new 0 0 105.96 89.64;" xml:space="preserve">
<style type="text/css">
	.st0{fill:#F4F4F5;}
	.st1{fill:#FDFEFE;stroke:#000000;stroke-width:0.25;stroke-miterlimit:10;}
	.st2{fill:#B0B0B0;stroke:#000000;stroke-width:0.25;stroke-miterlimit:10;}
	.st3{fill:#FFFFFF;}
	.st4{fill:none;stroke:#000000;stroke-width:2;stroke-miterlimit:10;}
	.st5{fill:#FFFFFF;stroke:#000000;stroke-width:0.25;stroke-miterlimit:10;}
	.st6{fill:none;stroke:#000000;stroke-width:0.75;stroke-miterlimit:10;}
	.st7{stroke:#000000;stroke-width:0.25;stroke-miterlimit:10;}
	.st8{fill:#FFFFFF;stroke:#000000;stroke-width:0.5;stroke-miterlimit:10;}
	.st9{fill:none;stroke:#CFCFCE;stroke-miterlimit:10;}
	.st10{stroke:#B0B0B0;stroke-width:0.25;stroke-miterlimit:10;}
	.st11{fill:none;}
	.st12{fill:#F4F4F5;stroke:#000000;stroke-width:0.25;stroke-miterlimit:10;}
	.st13{fill:none;stroke:#0B0B0B;stroke-miterlimit:10;}
	.st14{stroke:#F4F4F5;stroke-width:0.25;stroke-miterlimit:10;}
	.st15{fill:none;stroke:#F4F4F5;stroke-width:4;stroke-miterlimit:10;}
	.st16{fill:#FDFEFE;}
	.st17{fill:#606161;}
	.st18{fill:none;stroke:#000000;stroke-width:0.5;stroke-miterlimit:10;}
	.st19{fill:none;stroke:#000000;stroke-width:0.25;stroke-miterlimit:10;}
	.st20{fill:#B0B0B0;}
	.st21{fill:#DDDDDD;}
	.st22{fill:none;stroke:#000000;stroke-miterlimit:10;}
	.st23{stroke:#FFFFFF;stroke-width:0.5;stroke-miterlimit:10;}
	.st24{stroke:#000000;stroke-width:0.5;stroke-miterlimit:10;}
	.st25{fill:#8C8B8B;}
	.st26{fill:#2D2D2D;}
	.st27{fill:#F4F4F5;stroke:#171717;stroke-width:0.25;stroke-miterlimit:10;}
	.st28{fill:none;stroke:#FFFFFF;stroke-width:2;stroke-miterlimit:10;}
	.st29{fill:#151515;}
	.st30{fill:#FCD4D0;}
	.st31{fill:#F47B5E;}
	.st32{fill:#DFE8F6;}
	.st33{fill:#36485D;}
	.st34{fill:#EAEAEA;}
	.st35{fill:#CED1DA;}
	.st36{stroke:#000000;stroke-width:1.25;stroke-miterlimit:10;}
	.st37{stroke:#FFFFFF;stroke-width:0.75;stroke-miterlimit:10;}
	.st38{fill:#C2C1C0;}
	.st39{stroke:#000000;stroke-width:2;stroke-miterlimit:10;}
	.st40{fill:#FFFFFF;stroke:#FFFFFF;stroke-width:0.25;stroke-miterlimit:10;}
	.st41{fill:none;stroke:#ED2124;stroke-width:2;stroke-miterlimit:10;}
	.st42{stroke:#000000;stroke-miterlimit:10;}
</style>
<g>
	<path class="st42" d="M82.57,81.05c-0.29,0-0.51-0.03-0.69-0.09c-1.72-0.7-2.85-1.61-3.39-2.72c-0.54-1.11-0.82-2.48-0.82-4.12
		c0-0.99,0.06-1.99,0.17-2.98c0.11-0.99,0.26-1.99,0.43-2.98c1.26-7.65,3.49-15.13,6.69-22.43c3.2-7.3,7.03-14.23,11.5-20.77
		c0.29-0.41,0.43-0.85,0.43-1.31c0-0.41-0.16-0.7-0.47-0.88c-0.32-0.18-0.7-0.26-1.16-0.26c-0.97,0-1.93,0.29-2.87,0.88
		c-0.94,0.58-1.73,1.17-2.36,1.75c-2.86,2.51-5.68,5.45-8.45,8.81c-2.78,3.36-5.31,6.5-7.59,9.42c-1.95,2.63-3.86,5.29-5.75,7.97
		c-1.89,2.69-3.72,5.4-5.49,8.15c-0.74,1.23-1.5,2.53-2.27,3.9c-0.77,1.37-1.56,2.64-2.36,3.81c-0.29,0.58-0.74,0.88-1.37,0.88
		c-0.4,0-0.74-0.13-1.03-0.39c-0.29-0.26-0.43-0.57-0.43-0.92c0-0.12,0.01-0.2,0.04-0.26c0.03-0.06,0.04-0.12,0.04-0.18
		c1.94-5.73,3.85-11.45,5.71-17.18c1.86-5.73,3.67-11.45,5.45-17.18c0.17-0.53,0.31-1.05,0.43-1.58c0.11-0.53,0.17-1.05,0.17-1.58
		c0-0.64-0.13-1.23-0.39-1.75c-0.26-0.53-0.79-0.79-1.59-0.79c-0.69,0-1.36,0.18-2.02,0.53c-0.66,0.35-1.24,0.7-1.76,1.05
		c-0.92,0.64-1.8,1.36-2.66,2.15c-0.86,0.79-1.69,1.56-2.49,2.32c-3.15,3.1-6.13,6.35-8.97,9.77c-2.83,3.42-5.33,7-7.51,10.74
		c-2.06,3.68-4.13,7.36-6.22,11.04c-2.09,3.68-4.08,7.42-5.96,11.22c-0.4,0.18-0.83,0.26-1.29,0.26c-0.29,0-0.63-0.06-1.03-0.18
		c-0.4-0.12-0.6-0.38-0.6-0.79v-0.35c1.37-3.62,2.99-7.2,4.85-10.74c1.86-3.53,3.67-7.02,5.45-10.47c0.74-1.46,1.73-3.31,2.96-5.56
		c1.23-2.25,2.54-4.72,3.95-7.41c1.4-2.69,2.72-5.37,3.95-8.06c1.23-2.69,2.23-5.18,3-7.49c0.77-2.31,1.16-4.22,1.16-5.74
		c0-1.75-0.54-3.01-1.63-3.77c-1.09-0.76-2.57-1.14-4.46-1.14c-1.77,0-3.73,0.26-5.88,0.79c-2.14,0.53-4.23,1.18-6.26,1.97
		c-2.03,0.79-3.82,1.59-5.36,2.41c-2.12,1.05-4.35,2.47-6.69,4.25c-2.35,1.78-4.55,3.77-6.61,5.96c-2.06,2.19-3.73,4.48-5.02,6.88
		c-1.29,2.4-1.93,4.76-1.93,7.1c0,1.75,0.51,3.19,1.54,4.29c1.03,1.11,2.6,1.67,4.72,1.67c1.37,0,2.5-0.23,3.39-0.7
		c0.89-0.47,1.53-0.7,1.93-0.7c0.4,0,0.74,0.15,1.03,0.44c0.29,0.29,0.43,0.61,0.43,0.96c0,0.53-0.46,0.98-1.37,1.36
		c-0.92,0.38-1.92,0.66-3,0.83c-1.09,0.18-1.86,0.26-2.32,0.26c-2.97,0-5.21-0.8-6.69-2.41c-1.49-1.61-2.23-3.67-2.23-6.18
		c0-1.69,0.29-3.42,0.86-5.17c0.57-1.75,1.34-3.36,2.32-4.82c1.37-2.04,3.1-4.09,5.19-6.13c2.09-2.04,4.35-3.94,6.78-5.7
		c2.43-1.75,4.76-3.21,6.99-4.38c2.52-1.34,5.48-2.51,8.88-3.51c3.4-0.99,6.59-1.49,9.57-1.49c2.4,0,4.45,0.48,6.13,1.45
		c1.69,0.96,2.53,2.64,2.53,5.04c0,1.52-0.33,3.35-0.99,5.48c-0.66,2.13-1.49,4.35-2.49,6.66c-1,2.31-2,4.5-3,6.57
		c-1,2.07-1.87,3.81-2.62,5.21l0.43,0.18c0.69-0.88,1.64-2.07,2.87-3.59c1.23-1.52,2.63-3.15,4.2-4.91c1.57-1.75,3.22-3.4,4.93-4.95
		c1.72-1.55,3.39-2.82,5.02-3.81c1.63-0.99,3.1-1.49,4.42-1.49c1.66,0,2.79,0.61,3.39,1.84c0.6,1.23,0.9,2.45,0.9,3.68
		c0,0.58-0.06,1.17-0.17,1.75c-0.12,0.58-0.23,1.2-0.34,1.84c-0.23,1.17-0.56,2.34-0.99,3.51c-0.43,1.17-0.82,2.34-1.16,3.51
		l-4.63,14.28l0.43,0.18c2.12-3.21,4.56-6.69,7.33-10.43c2.77-3.74,5.71-7.39,8.79-10.95c3.09-3.56,6.06-6.63,8.92-9.2
		c1.03-0.99,2.24-1.88,3.65-2.67c1.4-0.79,2.9-1.18,4.5-1.18c1.14,0,2.09,0.28,2.83,0.83c0.74,0.56,1.12,1.36,1.12,2.41
		c0,0.58-0.13,1.17-0.39,1.75c-0.26,0.58-0.56,1.14-0.9,1.67c-2.69,4.03-5.22,8.43-7.59,13.19c-2.37,4.76-4.43,9.63-6.18,14.59
		c-1.75,4.97-3.07,9.81-3.99,14.55c-0.17,0.82-0.31,1.67-0.43,2.54c-0.12,0.88-0.17,1.72-0.17,2.54c0,1.34,0.16,2.34,0.47,2.98
		c0.31,0.64,0.69,1.11,1.12,1.4c0.43,0.29,0.8,0.54,1.12,0.75c0.31,0.2,0.47,0.57,0.47,1.1C83.69,80.67,83.31,81.05,82.57,81.05z"/>
</g>
</svg>
